REM DIRINDEX 1\2,1\3,1\4,1\5\6,1\5\7,1\8
REM DIRNAME cjc115,folder01,folder02,folder03,folder04,folder05,folder06,folder07
TITLE ""
FILE "153 Åy153ÅzUnit9 (1729 settle down_1740 distract A from B).mp3" MP3
  TRACK 01 AUDIO
    TITLE "0:"
    INDEX 01 00:00:00
  TRACK 02 AUDIO
    TITLE "2:cjc115_5992"
    INDEX 01 00:00:01
  TRACK 03 AUDIO
    TITLE "0:"
    INDEX 01 00:01:34
  TRACK 04 AUDIO
    TITLE "3:cjc115_5993"
    INDEX 01 00:01:46
  TRACK 05 AUDIO
    TITLE "0:"
    INDEX 01 00:03:49
  TRACK 06 AUDIO
    TITLE "4:cjc115_5994"
    INDEX 01 00:03:59
  TRACK 07 AUDIO
    TITLE "0:"
    INDEX 01 00:07:07
  TRACK 08 AUDIO
    TITLE "2:cjc115_5995"
    INDEX 01 00:08:19
  TRACK 09 AUDIO
    TITLE "0:"
    INDEX 01 00:09:38
  TRACK 10 AUDIO
    TITLE "3:cjc115_5996"
    INDEX 01 00:09:42
  TRACK 11 AUDIO
    TITLE "0:"
    INDEX 01 00:11:01
  TRACK 12 AUDIO
    TITLE "4:cjc115_5997"
    INDEX 01 00:11:03
  TRACK 13 AUDIO
    TITLE "0:"
    INDEX 01 00:14:06
  TRACK 14 AUDIO
    TITLE "2:cjc115_5998"
    INDEX 01 00:15:13
  TRACK 15 AUDIO
    TITLE "0:"
    INDEX 01 00:16:48
  TRACK 16 AUDIO
    TITLE "3:cjc115_5999"
    INDEX 01 00:16:59
  TRACK 17 AUDIO
    TITLE "0:"
    INDEX 01 00:18:13
  TRACK 18 AUDIO
    TITLE "4:cjc115_6000"
    INDEX 01 00:18:21
  TRACK 19 AUDIO
    TITLE "0:"
    INDEX 01 00:22:05
  TRACK 20 AUDIO
    TITLE "2:cjc115_6001"
    INDEX 01 00:23:14
  TRACK 21 AUDIO
    TITLE "0:"
    INDEX 01 00:24:31
  TRACK 22 AUDIO
    TITLE "3:cjc115_6002"
    INDEX 01 00:24:41
  TRACK 23 AUDIO
    TITLE "0:"
    INDEX 01 00:26:71
  TRACK 24 AUDIO
    TITLE "4:cjc115_6003"
    INDEX 01 00:27:06
  TRACK 25 AUDIO
    TITLE "0:"
    INDEX 01 00:31:37
  TRACK 26 AUDIO
    TITLE "2:cjc115_6004"
    INDEX 01 00:32:45
  TRACK 27 AUDIO
    TITLE "0:"
    INDEX 01 00:34:26
  TRACK 28 AUDIO
    TITLE "3:cjc115_6005"
    INDEX 01 00:34:38
  TRACK 29 AUDIO
    TITLE "0:"
    INDEX 01 00:36:74
  TRACK 30 AUDIO
    TITLE "4:cjc115_6006"
    INDEX 01 00:37:05
  TRACK 31 AUDIO
    TITLE "0:"
    INDEX 01 00:40:01
  TRACK 32 AUDIO
    TITLE "2:cjc115_6007"
    INDEX 01 00:41:08
  TRACK 33 AUDIO
    TITLE "0:"
    INDEX 01 00:42:47
  TRACK 34 AUDIO
    TITLE "3:cjc115_6008"
    INDEX 01 00:42:57
  TRACK 35 AUDIO
    TITLE "0:"
    INDEX 01 00:45:41
  TRACK 36 AUDIO
    TITLE "4:cjc115_6009"
    INDEX 01 00:45:51
  TRACK 37 AUDIO
    TITLE "0:"
    INDEX 01 00:49:04
  TRACK 38 AUDIO
    TITLE "2:cjc115_6010"
    INDEX 01 00:50:09
  TRACK 39 AUDIO
    TITLE "0:"
    INDEX 01 00:51:58
  TRACK 40 AUDIO
    TITLE "3:cjc115_6011"
    INDEX 01 00:51:69
  TRACK 41 AUDIO
    TITLE "0:"
    INDEX 01 00:55:73
  TRACK 42 AUDIO
    TITLE "4:cjc115_6012"
    INDEX 01 00:56:10
  TRACK 43 AUDIO
    TITLE "0:"
    INDEX 01 01:00:70
  TRACK 44 AUDIO
    TITLE "2:cjc115_6013"
    INDEX 01 01:02:06
  TRACK 45 AUDIO
    TITLE "0:"
    INDEX 01 01:03:31
  TRACK 46 AUDIO
    TITLE "3:cjc115_6014"
    INDEX 01 01:03:39
  TRACK 47 AUDIO
    TITLE "0:"
    INDEX 01 01:06:28
  TRACK 48 AUDIO
    TITLE "4:cjc115_6015"
    INDEX 01 01:06:32
  TRACK 49 AUDIO
    TITLE "0:"
    INDEX 01 01:11:37
  TRACK 50 AUDIO
    TITLE "2:cjc115_6016"
    INDEX 01 01:12:38
  TRACK 51 AUDIO
    TITLE "0:"
    INDEX 01 01:13:55
  TRACK 52 AUDIO
    TITLE "3:cjc115_6017"
    INDEX 01 01:13:67
  TRACK 53 AUDIO
    TITLE "0:"
    INDEX 01 01:16:20
  TRACK 54 AUDIO
    TITLE "4:cjc115_6018"
    INDEX 01 01:16:30
  TRACK 55 AUDIO
    TITLE "0:"
    INDEX 01 01:19:52
  TRACK 56 AUDIO
    TITLE "2:cjc115_6019"
    INDEX 01 01:20:55
  TRACK 57 AUDIO
    TITLE "0:"
    INDEX 01 01:22:13
  TRACK 58 AUDIO
    TITLE "3:cjc115_6020"
    INDEX 01 01:22:21
  TRACK 59 AUDIO
    TITLE "0:"
    INDEX 01 01:23:56
  TRACK 60 AUDIO
    TITLE "4:cjc115_6021"
    INDEX 01 01:23:62
  TRACK 61 AUDIO
    TITLE "0:"
    INDEX 01 01:26:64
  TRACK 62 AUDIO
    TITLE "2:cjc115_6022"
    INDEX 01 01:27:71
  TRACK 63 AUDIO
    TITLE "0:"
    INDEX 01 01:29:11
  TRACK 64 AUDIO
    TITLE "3:cjc115_6023"
    INDEX 01 01:29:23
  TRACK 65 AUDIO
    TITLE "0:"
    INDEX 01 01:32:37
  TRACK 66 AUDIO
    TITLE "4:cjc115_6024"
    INDEX 01 01:32:43
  TRACK 67 AUDIO
    TITLE "0:"
    INDEX 01 01:35:16
  TRACK 68 AUDIO
    TITLE "2:cjc115_6025"
    INDEX 01 01:36:27
  TRACK 69 AUDIO
    TITLE "0:"
    INDEX 01 01:38:38
  TRACK 70 AUDIO
    TITLE "3:cjc115_6026"
    INDEX 01 01:38:49
  TRACK 71 AUDIO
    TITLE "0:"
    INDEX 01 01:41:01
  TRACK 72 AUDIO
    TITLE "4:cjc115_6027"
    INDEX 01 01:41:09
  TRACK 73 AUDIO
    TITLE "0:"
    INDEX 01 01:44:32
